<svg width="128" height="128" viewBox="0 0 128 128" fill="none" xmlns="http://www.w3.org/2000/svg">
<g clip-path="url(#clip0_7_21)">
<rect width="128" height="128" rx="29" fill="url(#paint0_linear_7_21)"/>
<path d="M33.25 79L34.3 73.75C36.12 71.1367 38.2433 68.8033 40.67 66.75C43.0967 64.6967 45.71 62.62 48.51 60.52C51.0767 58.56 53.1067 56.9967 54.6 55.83C56.0933 54.6633 57.2133 53.5433 57.96 52.47C58.7533 51.3967 59.3133 50.1133 59.64 48.62C60.0133 46.7067 59.78 45.2833 58.94 44.35C58.1467 43.37 56.3033 42.88 53.41 42.88C51.4967 42.88 49.56 43.1133 47.6 43.58C45.64 44 43.75 44.5367 41.93 45.19L44.03 35.46C45.99 34.8067 48.23 34.27 50.75 33.85C53.3167 33.43 55.8133 33.22 58.24 33.22C61.6 33.22 64.3533 33.8733 66.5 35.18C68.6467 36.44 70.1167 38.2133 70.91 40.5C71.75 42.7867 71.82 45.4233 71.12 48.41C70.5133 51.1167 69.37 53.4733 67.69 55.48C66.0567 57.44 63.7467 59.5167 60.76 61.71C58.5667 63.2967 56.5833 64.7667 54.81 66.12C53.0833 67.4267 51.5433 68.8267 50.19 70.32H66.92L65.1 79H33.25Z" fill="white"/>
<path d="M71.67 98L79.02 63.28L71.32 64.47L73.35 55.02L92.67 52.22L82.94 98H71.67Z" fill="white"/>
<path d="M11.1626 64.8153V59.8189C14.0296 59.8189 16.0182 59.2472 17.1286 58.1037C18.2389 56.9602 18.794 55.1125 18.794 52.5604V47.0668C18.794 44.0009 19.2166 41.5483 20.0618 39.7088C20.9235 37.8527 22.1167 36.4524 23.6413 35.5078C25.1825 34.5632 27.0054 33.9335 29.1101 33.6186C31.2147 33.3037 33.5182 33.1463 36.0206 33.1463V41.0511C34.0651 41.0511 32.5736 41.308 31.5462 41.8217C30.5353 42.3189 29.8475 43.0978 29.483 44.1584C29.1184 45.2024 28.9361 46.5282 28.9361 48.1357V55.3942C28.9361 56.6536 28.7041 57.8551 28.2401 58.9986C27.776 60.1255 26.9143 61.1281 25.6548 62.0064C24.3954 62.8681 22.5973 63.5559 20.2607 64.0696C17.924 64.5668 14.8913 64.8153 11.1626 64.8153ZM36.0206 96.0618C33.5182 96.0618 31.2147 95.9044 29.1101 95.5895C27.0054 95.2746 25.1825 94.6449 23.6413 93.7003C22.1167 92.7557 20.9235 91.3554 20.0618 89.4993C19.2166 87.6598 18.794 85.2071 18.794 82.1413V76.6229C18.794 74.0708 18.2389 72.223 17.1286 71.0795C16.0182 69.9361 14.0296 69.3643 11.1626 69.3643V64.3679C14.8913 64.3679 17.924 64.6248 20.2607 65.1385C22.5973 65.6357 24.3954 66.3234 25.6548 67.2017C26.9143 68.0634 27.776 69.0661 28.2401 70.2095C28.7041 71.3364 28.9361 72.5379 28.9361 73.8139V81.0724C28.9361 82.6634 29.1184 83.9808 29.483 85.0249C29.8475 86.0855 30.5353 86.8643 31.5462 87.3615C32.5736 87.8752 34.0651 88.1321 36.0206 88.1321V96.0618ZM11.1626 69.3643V59.8189H20.0866V69.3643H11.1626ZM118.421 64.3679V69.3643C115.571 69.3643 113.582 69.9361 112.455 71.0795C111.345 72.223 110.79 74.0708 110.79 76.6229V82.1413C110.79 85.2071 110.359 87.6598 109.497 89.4993C108.652 91.3554 107.459 92.7557 105.917 93.7003C104.393 94.6449 102.578 95.2746 100.474 95.5895C98.3855 95.9044 96.082 96.0618 93.563 96.0618V88.1321C95.5185 88.1321 97.0017 87.8752 98.0126 87.3615C99.0401 86.8643 99.7361 86.0855 100.101 85.0249C100.465 83.9808 100.648 82.6634 100.648 81.0724V73.8139C100.648 72.5379 100.88 71.3364 101.344 70.2095C101.808 69.0661 102.669 68.0634 103.929 67.2017C105.188 66.3234 106.986 65.6357 109.323 65.1385C111.66 64.6248 114.692 64.3679 118.421 64.3679ZM93.563 33.1463C96.082 33.1463 98.3855 33.3037 100.474 33.6186C102.578 33.9335 104.393 34.5632 105.917 35.5078C107.459 36.4524 108.652 37.8527 109.497 39.7088C110.359 41.5483 110.79 44.0009 110.79 47.0668V52.5604C110.79 55.1125 111.345 56.9602 112.455 58.1037C113.582 59.2472 115.571 59.8189 118.421 59.8189V64.8153C114.692 64.8153 111.66 64.5668 109.323 64.0696C106.986 63.5559 105.188 62.8681 103.929 62.0064C102.669 61.1281 101.808 60.1255 101.344 58.9986C100.88 57.8551 100.648 56.6536 100.648 55.3942V48.1357C100.648 46.5282 100.465 45.2024 100.101 44.1584C99.7361 43.0978 99.0401 42.3189 98.0126 41.8217C97.0017 41.308 95.5185 41.0511 93.563 41.0511V33.1463ZM118.421 59.8189V69.3643H109.497V59.8189H118.421Z" fill="white"/>
</g>
<rect x="2" y="2" width="124" height="124" rx="27" stroke="white" stroke-width="4"/>
<defs>
<linearGradient id="paint0_linear_7_21" x1="1.52271e-07" y1="8.5" x2="117" y2="32" gradientUnits="userSpaceOnUse">
<stop offset="0.458333" stop-color="#006551"/>
<stop offset="0.947917" stop-color="#00AB8F"/>
</linearGradient>
<clipPath id="clip0_7_21">
<rect width="128" height="128" rx="29" fill="white"/>
</clipPath>
</defs>
</svg>
